<svg xmlns:xlink="http://www.w3.org/1999/xlink" xmlns="http://www.w3.org/2000/svg" class="icon icon--apple auth__button-icon" height="24" width="24"><defs><symbol viewBox="0 0 24 24" id="apple"><path fill-rule="evenodd" clip-rule="evenodd" d="M12.874 2.547c.726-.869 1.94-1.505 2.952-1.547a.163.163 0 0 1 .166.146c.117 1.093-.27 2.313-1.038 3.264-.729.9-1.796 1.46-2.786 1.46-.069-.001-.139-.004-.207-.01a.162.162 0 0 1-.147-.141c-.158-1.226.444-2.443 1.06-3.172Zm-6.82 15.892c-1.831-2.7-2.884-7.153-1.228-10.087.87-1.547 2.449-2.523 4.12-2.548h.05c.72 0 1.398.274 1.997.517.448.182.835.339 1.133.339.265 0 .65-.155 1.095-.335.645-.26 1.448-.583 2.286-.583.107 0 .214.005.317.016.714.031 2.486.292 3.643 2.02a.167.167 0 0 1-.046.23l-.015.01c-.336.213-2.012 1.385-1.99 3.597.023 2.723 2.227 3.722 2.479 3.827l.011.005a.165.165 0 0 1 .086.2l-.006.019a11.134 11.134 0 0 1-1.348 2.82c-.773 1.154-1.65 2.46-3.076 2.488-.665.013-1.116-.187-1.553-.38l-.004-.001c-.445-.197-.905-.4-1.625-.4-.758 0-1.24.21-1.708.413-.416.181-.846.368-1.44.392L9.158 21c-1.267 0-2.192-1.212-3.106-2.561Z"></path></symbol></defs><use xlink:href="#apple"></use></svg>