<svg xmlns:xlink="http://www.w3.org/1999/xlink" xmlns="http://www.w3.org/2000/svg" class="icon icon--image" height="20" width="20"><defs><symbol viewBox="0 0 24 24" id="image"><path d="M8 9.5a1.5 1.5 0 1 1 3 0 1.5 1.5 0 0 1-3 0Z"></path><path fill-rule="evenodd" clip-rule="evenodd" d="M7 3a4 4 0 0 0-4 4v10a4 4 0 0 0 4 4h10a4 4 0 0 0 4-4V7a4 4 0 0 0-4-4H7ZM5 7a2 2 0 0 1 2-2h10a2 2 0 0 1 2 2v5.252l-1.478-1.477a2 2 0 0 0-3.014.214L8.5 19H7a2 2 0 0 1-2-2V7Zm11.108 5.19L19 15.08V17a2 2 0 0 1-2 2h-6l5.108-6.81Z"></path></symbol></defs><use xlink:href="#image" fill="#595959"></use></svg>