<svg xmlns:xlink="http://www.w3.org/1999/xlink" xmlns="http://www.w3.org/2000/svg" class="icon icon--bell bell__button-icon" height="28" width="28"><defs><symbol viewBox="0 0 24 24" id="bell"><path d="M5 10a7 7 0 0 1 14 0v3.764l1.532 3.065A1.5 1.5 0 0 1 19.191 19H15a3 3 0 0 1-6 0H4.809a1.5 1.5 0 0 1-1.342-2.17L5 13.763V10Zm6 9a1 1 0 1 0 2 0h-2Zm1-14a5 5 0 0 0-5 5v4a1 1 0 0 1-.106.447L5.618 17H18.38l-1.276-2.553A1 1 0 0 1 17 14v-4a5 5 0 0 0-5-5Z"></path></symbol></defs><use xlink:href="#bell"></use></svg>