<svg xmlns:xlink="http://www.w3.org/1999/xlink" xmlns="http://www.w3.org/2000/svg" height="24" width="24"><defs><symbol viewBox="0 0 24 24" id="clock"><path fill-rule="evenodd" clip-rule="evenodd" d="M12 3.998a8.002 8.002 0 1 0 0 16.004 8.002 8.002 0 0 0 0-16.005ZM2.002 12c0-5.521 4.477-9.998 9.998-9.998 5.521 0 9.997 4.477 9.997 9.998 0 5.521-4.476 9.997-9.997 9.997S2.002 17.521 2.002 12ZM12 6.003c.55 0 .998.447.998.997v4.297l2.837 1.014a.998.998 0 0 1-.67 1.879l-3.5-1.25a.998.998 0 0 1-.662-.94V7c0-.55.446-.997.997-.997Z"></path></symbol></defs><use xlink:href="#clock" fill="#595959"></use></svg>
