<svg xmlns:xlink="http://www.w3.org/1999/xlink" xmlns="http://www.w3.org/2000/svg" class="icon icon--mail auth__button-icon" height="24" width="24"><defs><symbol viewBox="0 0 24 24" id="mail"><path fill-rule="evenodd" clip-rule="evenodd" d="M2 8a4 4 0 0 1 4-4h12a4 4 0 0 1 4 4v8a4 4 0 0 1-4 4H6a4 4 0 0 1-4-4V8Zm2.026-.32 6.947 4.156a2 2 0 0 0 2.054 0l6.947-4.157A2 2 0 0 0 18 6H6a2 2 0 0 0-1.974 1.68ZM20 9.993l-5.946 3.558a4 4 0 0 1-4.108 0L4 9.994V16a2 2 0 0 0 2 2h12a2 2 0 0 0 2-2V9.994Z"></path></symbol></defs><use xlink:href="#mail"></use></svg>