<svg xmlns:xlink="http://www.w3.org/1999/xlink" xmlns="http://www.w3.org/2000/svg" class="icon icon--my_feed" height="24" width="24"><defs><symbol viewBox="0 0 24 24" id="my_feed"><path fill-rule="evenodd" clip-rule="evenodd" d="M6 5a2 2 0 0 0-2 2v10a2 2 0 0 0 2 2h5a1 1 0 1 1 0 2H6a4 4 0 0 1-4-4V7a4 4 0 0 1 4-4h12a4 4 0 0 1 4 4v4a1 1 0 1 1-2 0V7a2 2 0 0 0-2-2H6Zm16.632 9.225a1 1 0 0 1 .143 1.407l-4.893 6a1 1 0 0 1-1.48.077l-3.107-3.085a1 1 0 0 1 1.41-1.42l2.324 2.31 4.196-5.146a1 1 0 0 1 1.407-.143Z"></path></symbol></defs><use xlink:href="#my_feed" fill="#595959"></use></svg>