<svg xmlns:xlink="http://www.w3.org/1999/xlink" xmlns="http://www.w3.org/2000/svg" class="icon icon--google_day auth__button-icon" height="24" width="24"><defs><symbol fill="none" viewBox="0 0 24 24" id="google_day"><path d="m6.433 14.086-.696 2.599-2.544.054A9.955 9.955 0 0 1 2 11.999a9.95 9.95 0 0 1 1.118-4.598l2.266.415.992 2.252A5.944 5.944 0 0 0 6.057 12c0 .734.132 1.437.376 2.086Z" fill="#FBBB00"></path><path d="M21.826 10.132c.115.605.174 1.23.174 1.868a9.997 9.997 0 0 1-3.74 7.798l-2.853-.146-.403-2.521a5.96 5.96 0 0 0 2.564-3.043H12.22v-3.956h9.605Z" fill="#518EF8"></path><path d="M18.26 19.798A9.958 9.958 0 0 1 12 22a9.998 9.998 0 0 1-8.808-5.26l3.24-2.654a5.946 5.946 0 0 0 8.571 3.045l3.257 2.667Z" fill="#28B446"></path><path d="m18.384 4.302-3.24 2.652a5.948 5.948 0 0 0-8.767 3.114L3.12 7.401a9.998 9.998 0 0 1 8.88-5.4c2.427 0 4.652.863 6.384 2.301Z" fill="#F14336"></path></symbol></defs><use xlink:href="#google_day"></use></svg>