<svg xmlns:xlink="http://www.w3.org/1999/xlink" xmlns="http://www.w3.org/2000/svg" class="icon icon--like" height="20" width="20"><defs><symbol fill="none" viewBox="0 0 24 24" id="like"><path d="M3.224 8.104C3.751 6.186 5.284 4.5 7.876 4.5c1.563 0 2.64.574 3.391 1 .305.173.558.377.733.5.175-.123.428-.327.733-.5.751-.426 1.828-1 3.39-1 2.592 0 4.126 1.686 4.653 3.604.519 1.887.045 4.248-1.276 5.896-1.218 1.518-2.8 2.809-4.212 3.786-.709.492-1.366.896-1.883 1.18-.419.23-.912.534-1.405.534-.5 0-.983-.302-1.405-.534a22.27 22.27 0 0 1-1.883-1.18C7.3 16.81 5.718 15.518 4.5 14c-1.321-1.648-1.795-4.009-1.276-5.896Z" stroke="#808080" stroke-width="1.995px" stroke-linecap="round" stroke-linejoin="round" fill="none"></path></symbol></defs><use xlink:href="#like" fill="#808080"></use></svg>
