<svg xmlns:xlink="http://www.w3.org/1999/xlink" xmlns="http://www.w3.org/2000/svg" width="56" height="20" viewBox="0 0 56 20"><path fill-rule="evenodd" d="M0 .667h11.557c4.011 0 7.274 3.233 7.273 7.209v4.248c0 3.976-3.262 7.21-7.273 7.21H0V.666ZM11.557 14.64c1.399 0 2.536-1.13 2.536-2.516h-.001V7.876a2.527 2.527 0 0 0-2.536-2.515H4.733v9.279h6.824Zm8.61-9.28h6.612v13.934h4.734V5.36h6.612V.667H20.168V5.36ZM56 .667V5.36H45.446v3.753h7.986v4.434h-7.986v5.747H40.71V.667h15.29Z" clip-rule="evenodd"></path></svg>