<svg xmlns:xlink="http://www.w3.org/1999/xlink" xmlns="http://www.w3.org/2000/svg" class="icon icon--pen" height="20" width="20"><defs><symbol fill="none" viewBox="0 0 24 24" id="pen"><path fill-rule="evenodd" clip-rule="evenodd" d="M16.172 3.586a2 2 0 0 1 2.828 0L20.414 5a2 2 0 0 1 0 2.829l-1.697 1.696L8.391 19.851a2 2 0 0 1-1.053.553l-3.157.58a1 1 0 0 1-1.165-1.164l.58-3.159a2 2 0 0 1 .553-1.053L16.172 3.586Zm1.838 3.818.99-.99L17.586 5l-.99.99 1.414 1.414Zm-2.828 0-9.619 9.618-.318 1.733 1.732-.318 9.619-9.619-1.414-1.414Z" fill="currentColor"></path></symbol></defs><use xlink:href="#pen"></use></svg>